<mxfile host="app.diagrams.net" agent="Mozilla/5.0 (Windows NT 10.0; Win64; x64) AppleWebKit/537.36 (KHTML, like Gecko) Chrome/131.0.0.0 Safari/537.36" version="26.0.6">
  <diagram name="Strona-1" id="q-totfscL4rQNXWgU_Hg">
    <mxGraphModel dx="478" dy="260" grid="1" gridSize="10" guides="1" tooltips="1" connect="1" arrows="1" fold="1" page="1" pageScale="1" pageWidth="827" pageHeight="1169" math="1" shadow="0">
      <root>
        <mxCell id="0" />
        <mxCell id="1" parent="0" />
        <mxCell id="yS0HQnWSNS-6oNHslswb-39" value="" style="verticalLabelPosition=bottom;verticalAlign=top;html=1;shape=mxgraph.basic.arc;startAngle=0.13841783321747206;endAngle=0.49517859836408784;fillColor=none;strokeColor=#990000;flipH=0;" parent="1" vertex="1">
          <mxGeometry x="337.75" y="493.5" width="121" height="131" as="geometry" />
        </mxCell>
        <mxCell id="yS0HQnWSNS-6oNHslswb-34" value="\(\theta_1\)" style="text;html=1;align=center;verticalAlign=middle;resizable=0;points=[];autosize=1;strokeColor=none;fillColor=none;fontColor=#00CC00;" parent="1" vertex="1">
          <mxGeometry x="374" y="579" width="80" height="30" as="geometry" />
        </mxCell>
        <mxCell id="yS0HQnWSNS-6oNHslswb-1" value="" style="endArrow=classic;html=1;rounded=0;" parent="1" edge="1">
          <mxGeometry width="50" height="50" relative="1" as="geometry">
            <mxPoint x="200" y="560" as="sourcePoint" />
            <mxPoint x="600" y="560" as="targetPoint" />
          </mxGeometry>
        </mxCell>
        <mxCell id="yS0HQnWSNS-6oNHslswb-2" value="" style="endArrow=classic;html=1;rounded=0;" parent="1" edge="1">
          <mxGeometry width="50" height="50" relative="1" as="geometry">
            <mxPoint x="399.83" y="359" as="sourcePoint" />
            <mxPoint x="399.83" y="759" as="targetPoint" />
          </mxGeometry>
        </mxCell>
        <mxCell id="yS0HQnWSNS-6oNHslswb-3" value="" style="endArrow=none;html=1;rounded=0;" parent="1" edge="1">
          <mxGeometry width="50" height="50" relative="1" as="geometry">
            <mxPoint x="280" y="680" as="sourcePoint" />
            <mxPoint x="520" y="440" as="targetPoint" />
          </mxGeometry>
        </mxCell>
        <mxCell id="yS0HQnWSNS-6oNHslswb-4" value="" style="endArrow=none;html=1;rounded=0;" parent="1" edge="1">
          <mxGeometry width="50" height="50" relative="1" as="geometry">
            <mxPoint x="520" y="680" as="sourcePoint" />
            <mxPoint x="280" y="440" as="targetPoint" />
          </mxGeometry>
        </mxCell>
        <mxCell id="yS0HQnWSNS-6oNHslswb-5" value="" style="verticalLabelPosition=bottom;verticalAlign=top;html=1;shape=mxgraph.basic.arc;startAngle=0.8800508415679218;endAngle=0.375;" parent="1" vertex="1">
          <mxGeometry x="451" y="372" width="80" height="80" as="geometry" />
        </mxCell>
        <mxCell id="yS0HQnWSNS-6oNHslswb-6" value="" style="verticalLabelPosition=bottom;verticalAlign=top;html=1;shape=mxgraph.basic.arc;startAngle=0.8778934074333611;endAngle=0.375;direction=south;" parent="1" vertex="1">
          <mxGeometry x="508" y="611" width="80" height="80" as="geometry" />
        </mxCell>
        <mxCell id="yS0HQnWSNS-6oNHslswb-7" value="" style="verticalLabelPosition=bottom;verticalAlign=top;html=1;shape=mxgraph.basic.arc;startAngle=0.8783857645420314;endAngle=0.375;direction=west;" parent="1" vertex="1">
          <mxGeometry x="269" y="668" width="80" height="80" as="geometry" />
        </mxCell>
        <mxCell id="yS0HQnWSNS-6oNHslswb-8" value="" style="verticalLabelPosition=bottom;verticalAlign=top;html=1;shape=mxgraph.basic.arc;startAngle=0.8792431262283692;endAngle=0.375;direction=north;" parent="1" vertex="1">
          <mxGeometry x="212" y="429" width="80" height="80" as="geometry" />
        </mxCell>
        <mxCell id="yS0HQnWSNS-6oNHslswb-9" value="" style="verticalLabelPosition=bottom;verticalAlign=top;html=1;shape=mxgraph.basic.arc;startAngle=0.8798955306212792;endAngle=0.375;flipH=1;" parent="1" vertex="1">
          <mxGeometry x="269" y="372" width="80" height="80" as="geometry" />
        </mxCell>
        <mxCell id="yS0HQnWSNS-6oNHslswb-10" value="" style="verticalLabelPosition=bottom;verticalAlign=top;html=1;shape=mxgraph.basic.arc;startAngle=0.8805820939250587;endAngle=0.375;flipH=1;direction=south;" parent="1" vertex="1">
          <mxGeometry x="212" y="611" width="80" height="80" as="geometry" />
        </mxCell>
        <mxCell id="yS0HQnWSNS-6oNHslswb-11" value="" style="verticalLabelPosition=bottom;verticalAlign=top;html=1;shape=mxgraph.basic.arc;startAngle=0.8792431262283692;endAngle=0.375;flipH=1;direction=west;" parent="1" vertex="1">
          <mxGeometry x="451" y="668" width="80" height="80" as="geometry" />
        </mxCell>
        <mxCell id="yS0HQnWSNS-6oNHslswb-12" value="" style="verticalLabelPosition=bottom;verticalAlign=top;html=1;shape=mxgraph.basic.arc;startAngle=0.8773403451687234;endAngle=0.375;flipH=1;direction=north;" parent="1" vertex="1">
          <mxGeometry x="508" y="429" width="80" height="80" as="geometry" />
        </mxCell>
        <mxCell id="yS0HQnWSNS-6oNHslswb-14" value="" style="shape=ellipse;fillColor=#990000;strokeColor=none;html=1;sketch=0;gradientColor=none;" parent="1" vertex="1">
          <mxGeometry x="518" y="439" width="3" height="3" as="geometry" />
        </mxCell>
        <mxCell id="yS0HQnWSNS-6oNHslswb-15" value="" style="shape=ellipse;fillColor=#990000;strokeColor=none;html=1;sketch=0;gradientColor=none;" parent="1" vertex="1">
          <mxGeometry x="279" y="439" width="3" height="3" as="geometry" />
        </mxCell>
        <mxCell id="yS0HQnWSNS-6oNHslswb-16" value="" style="shape=ellipse;fillColor=#990000;strokeColor=none;html=1;sketch=0;gradientColor=none;" parent="1" vertex="1">
          <mxGeometry x="518" y="678" width="3" height="3" as="geometry" />
        </mxCell>
        <mxCell id="yS0HQnWSNS-6oNHslswb-17" value="" style="shape=ellipse;fillColor=#990000;strokeColor=none;html=1;sketch=0;gradientColor=none;" parent="1" vertex="1">
          <mxGeometry x="279" y="678" width="3" height="3" as="geometry" />
        </mxCell>
        <mxCell id="yS0HQnWSNS-6oNHslswb-18" value="" style="shape=ellipse;fillColor=#0000FF;strokeColor=none;html=1;sketch=0;gradientColor=none;" parent="1" vertex="1">
          <mxGeometry x="250.5" y="649.5" width="3" height="3" as="geometry" />
        </mxCell>
        <mxCell id="yS0HQnWSNS-6oNHslswb-21" value="" style="shape=ellipse;fillColor=#0000FF;strokeColor=none;html=1;sketch=0;gradientColor=none;" parent="1" vertex="1">
          <mxGeometry x="307.5" y="706.5" width="3" height="3" as="geometry" />
        </mxCell>
        <mxCell id="yS0HQnWSNS-6oNHslswb-25" value="" style="shape=ellipse;fillColor=#0000FF;strokeColor=none;html=1;sketch=0;gradientColor=none;" parent="1" vertex="1">
          <mxGeometry x="489.5" y="709.5" width="3" height="3" as="geometry" />
        </mxCell>
        <mxCell id="yS0HQnWSNS-6oNHslswb-26" value="" style="shape=ellipse;fillColor=#0000FF;strokeColor=none;html=1;sketch=0;gradientColor=none;" parent="1" vertex="1">
          <mxGeometry x="546.5" y="652.5" width="3" height="3" as="geometry" />
        </mxCell>
        <mxCell id="yS0HQnWSNS-6oNHslswb-27" value="" style="shape=ellipse;fillColor=#0000FF;strokeColor=none;html=1;sketch=0;gradientColor=none;" parent="1" vertex="1">
          <mxGeometry x="250.5" y="467.5" width="3" height="3" as="geometry" />
        </mxCell>
        <mxCell id="yS0HQnWSNS-6oNHslswb-28" value="" style="shape=ellipse;fillColor=#0000FF;strokeColor=none;html=1;sketch=0;gradientColor=none;" parent="1" vertex="1">
          <mxGeometry x="304.5" y="410.5" width="3" height="3" as="geometry" />
        </mxCell>
        <mxCell id="yS0HQnWSNS-6oNHslswb-30" value="" style="shape=ellipse;fillColor=#0000FF;strokeColor=none;html=1;sketch=0;gradientColor=none;" parent="1" vertex="1">
          <mxGeometry x="549.5" y="464.5" width="3" height="3" as="geometry" />
        </mxCell>
        <mxCell id="yS0HQnWSNS-6oNHslswb-31" value="" style="shape=ellipse;fillColor=#0000FF;strokeColor=none;html=1;sketch=0;gradientColor=none;" parent="1" vertex="1">
          <mxGeometry x="489.5" y="410.5" width="3" height="3" as="geometry" />
        </mxCell>
        <mxCell id="yS0HQnWSNS-6oNHslswb-33" value="" style="verticalLabelPosition=bottom;verticalAlign=top;html=1;shape=mxgraph.basic.arc;startAngle=0.37614497983722867;endAngle=0.4968173254495136;strokeColor=#00CC00;" parent="1" vertex="1">
          <mxGeometry x="349" y="509" width="100" height="100" as="geometry" />
        </mxCell>
        <mxCell id="yS0HQnWSNS-6oNHslswb-36" value="\(\theta_2\)" style="text;html=1;align=center;verticalAlign=middle;resizable=0;points=[];autosize=1;strokeColor=none;fillColor=none;fontColor=#990000;" parent="1" vertex="1">
          <mxGeometry x="390" y="560" width="80" height="30" as="geometry" />
        </mxCell>
        <mxCell id="yS0HQnWSNS-6oNHslswb-37" value="" style="verticalLabelPosition=bottom;verticalAlign=top;html=1;shape=mxgraph.basic.arc;startAngle=0.37614497983722867;endAngle=0.4968173254495136;strokeColor=#0000FF;flipV=0;flipH=1;" parent="1" vertex="1">
          <mxGeometry x="351" y="509" width="100" height="100" as="geometry" />
        </mxCell>
        <mxCell id="yS0HQnWSNS-6oNHslswb-38" value="" style="verticalLabelPosition=bottom;verticalAlign=top;html=1;shape=mxgraph.basic.arc;startAngle=0.13841783321747206;endAngle=0.49517859836408784;fillColor=none;strokeColor=light-dark(#7F00FF,#EDEDED);flipH=1;" parent="1" vertex="1">
          <mxGeometry x="340.5" y="493.5" width="121" height="131" as="geometry" />
        </mxCell>
        <mxCell id="yS0HQnWSNS-6oNHslswb-40" value="&lt;span style=&quot;&quot;&gt;\(\theta_3\)&lt;/span&gt;" style="text;html=1;align=center;verticalAlign=middle;resizable=0;points=[];autosize=1;strokeColor=none;fillColor=none;fontColor=#0000FF;" parent="1" vertex="1">
          <mxGeometry x="349" y="579" width="80" height="30" as="geometry" />
        </mxCell>
        <mxCell id="yS0HQnWSNS-6oNHslswb-41" value="&lt;span style=&quot;&quot;&gt;\(\theta_4\)&lt;/span&gt;" style="text;html=1;align=center;verticalAlign=middle;resizable=0;points=[];autosize=1;strokeColor=none;fillColor=none;fontColor=#7F00FF;" parent="1" vertex="1">
          <mxGeometry x="330" y="560" width="80" height="30" as="geometry" />
        </mxCell>
        <mxCell id="yS0HQnWSNS-6oNHslswb-42" value="dls &amp;gt; 0" style="text;html=1;align=center;verticalAlign=middle;resizable=0;points=[];autosize=1;strokeColor=none;fillColor=none;fontSize=8;" parent="1" vertex="1">
          <mxGeometry x="588" y="641" width="50" height="20" as="geometry" />
        </mxCell>
        <mxCell id="yS0HQnWSNS-6oNHslswb-43" value="&lt;font style=&quot;font-size: 8px;&quot;&gt;\(\theta\) &amp;gt; 0&lt;/font&gt;" style="text;html=1;align=center;verticalAlign=middle;resizable=0;points=[];autosize=1;strokeColor=none;fillColor=none;" parent="1" vertex="1">
          <mxGeometry x="578" y="648" width="70" height="30" as="geometry" />
        </mxCell>
        <mxCell id="yS0HQnWSNS-6oNHslswb-44" value="dls &amp;lt; 0" style="text;html=1;align=center;verticalAlign=middle;resizable=0;points=[];autosize=1;strokeColor=none;fillColor=none;fontSize=8;" parent="1" vertex="1">
          <mxGeometry x="518" y="730" width="50" height="20" as="geometry" />
        </mxCell>
        <mxCell id="yS0HQnWSNS-6oNHslswb-45" value="dls &amp;lt; 0" style="text;html=1;align=center;verticalAlign=middle;resizable=0;points=[];autosize=1;strokeColor=none;fillColor=none;fontSize=8;" parent="1" vertex="1">
          <mxGeometry x="219" y="730" width="50" height="20" as="geometry" />
        </mxCell>
        <mxCell id="yS0HQnWSNS-6oNHslswb-46" value="dls &amp;gt; 0" style="text;html=1;align=center;verticalAlign=middle;resizable=0;points=[];autosize=1;strokeColor=none;fillColor=none;fontSize=8;" parent="1" vertex="1">
          <mxGeometry x="160" y="641" width="50" height="20" as="geometry" />
        </mxCell>
        <mxCell id="yS0HQnWSNS-6oNHslswb-47" value="dls &amp;lt; 0" style="text;html=1;align=center;verticalAlign=middle;resizable=0;points=[];autosize=1;strokeColor=none;fillColor=none;fontSize=8;" parent="1" vertex="1">
          <mxGeometry x="588" y="447.5" width="50" height="20" as="geometry" />
        </mxCell>
        <mxCell id="yS0HQnWSNS-6oNHslswb-48" value="dls &amp;gt; 0" style="text;html=1;align=center;verticalAlign=middle;resizable=0;points=[];autosize=1;strokeColor=none;fillColor=none;fontSize=8;" parent="1" vertex="1">
          <mxGeometry x="521" y="372" width="50" height="20" as="geometry" />
        </mxCell>
        <mxCell id="yS0HQnWSNS-6oNHslswb-49" value="dls &amp;gt; 0" style="text;html=1;align=center;verticalAlign=middle;resizable=0;points=[];autosize=1;strokeColor=none;fillColor=none;fontSize=8;" parent="1" vertex="1">
          <mxGeometry x="229" y="372" width="50" height="20" as="geometry" />
        </mxCell>
        <mxCell id="yS0HQnWSNS-6oNHslswb-50" value="dls &amp;lt; 0" style="text;html=1;align=center;verticalAlign=middle;resizable=0;points=[];autosize=1;strokeColor=none;fillColor=none;fontSize=8;" parent="1" vertex="1">
          <mxGeometry x="160" y="444.5" width="50" height="20" as="geometry" />
        </mxCell>
        <mxCell id="yS0HQnWSNS-6oNHslswb-51" value="&lt;font style=&quot;font-size: 8px;&quot;&gt;\(\theta\) &amp;gt; 0&lt;/font&gt;" style="text;html=1;align=center;verticalAlign=middle;resizable=0;points=[];autosize=1;strokeColor=none;fillColor=none;" parent="1" vertex="1">
          <mxGeometry x="508" y="738" width="70" height="30" as="geometry" />
        </mxCell>
        <mxCell id="yS0HQnWSNS-6oNHslswb-52" value="&lt;font style=&quot;font-size: 8px;&quot;&gt;\(\theta\) &amp;lt; 0&lt;/font&gt;" style="text;html=1;align=center;verticalAlign=middle;resizable=0;points=[];autosize=1;strokeColor=none;fillColor=none;" parent="1" vertex="1">
          <mxGeometry x="209" y="738" width="70" height="30" as="geometry" />
        </mxCell>
        <mxCell id="yS0HQnWSNS-6oNHslswb-53" value="&lt;font style=&quot;font-size: 8px;&quot;&gt;\(\theta\) &amp;lt; 0&lt;/font&gt;" style="text;html=1;align=center;verticalAlign=middle;resizable=0;points=[];autosize=1;strokeColor=none;fillColor=none;" parent="1" vertex="1">
          <mxGeometry x="149" y="648" width="70" height="30" as="geometry" />
        </mxCell>
        <mxCell id="yS0HQnWSNS-6oNHslswb-54" value="&lt;font style=&quot;font-size: 8px;&quot;&gt;\(\theta\) &amp;gt; 0&lt;/font&gt;" style="text;html=1;align=center;verticalAlign=middle;resizable=0;points=[];autosize=1;strokeColor=none;fillColor=none;" parent="1" vertex="1">
          <mxGeometry x="578" y="454" width="70" height="30" as="geometry" />
        </mxCell>
        <mxCell id="yS0HQnWSNS-6oNHslswb-55" value="&lt;font style=&quot;font-size: 8px;&quot;&gt;\(\theta\) &amp;gt; 0&lt;/font&gt;" style="text;html=1;align=center;verticalAlign=middle;resizable=0;points=[];autosize=1;strokeColor=none;fillColor=none;" parent="1" vertex="1">
          <mxGeometry x="511" y="378.5" width="70" height="30" as="geometry" />
        </mxCell>
        <mxCell id="yS0HQnWSNS-6oNHslswb-56" value="&lt;font style=&quot;font-size: 8px;&quot;&gt;\(\theta\) &amp;lt; 0&lt;/font&gt;" style="text;html=1;align=center;verticalAlign=middle;resizable=0;points=[];autosize=1;strokeColor=none;fillColor=none;" parent="1" vertex="1">
          <mxGeometry x="219" y="378.5" width="70" height="30" as="geometry" />
        </mxCell>
        <mxCell id="yS0HQnWSNS-6oNHslswb-57" value="&lt;font style=&quot;font-size: 8px;&quot;&gt;\(\theta\) &amp;lt; 0&lt;/font&gt;" style="text;html=1;align=center;verticalAlign=middle;resizable=0;points=[];autosize=1;strokeColor=none;fillColor=none;" parent="1" vertex="1">
          <mxGeometry x="150" y="452" width="70" height="30" as="geometry" />
        </mxCell>
        <mxCell id="yS0HQnWSNS-6oNHslswb-59" value="" style="verticalLabelPosition=bottom;html=1;verticalAlign=top;strokeWidth=2;shape=mxgraph.lean_mapping.physical_pull;pointerEvents=1;" parent="1" vertex="1">
          <mxGeometry x="262" y="750" width="20" height="20" as="geometry" />
        </mxCell>
        <mxCell id="yS0HQnWSNS-6oNHslswb-60" value="" style="verticalLabelPosition=bottom;html=1;verticalAlign=top;strokeWidth=2;shape=mxgraph.lean_mapping.physical_pull;pointerEvents=1;" parent="1" vertex="1">
          <mxGeometry x="588" y="671" width="20" height="20" as="geometry" />
        </mxCell>
        <mxCell id="yS0HQnWSNS-6oNHslswb-61" value="" style="verticalLabelPosition=bottom;html=1;verticalAlign=top;strokeWidth=2;shape=mxgraph.lean_mapping.physical_pull;pointerEvents=1;" parent="1" vertex="1">
          <mxGeometry x="199" y="419" width="20" height="20" as="geometry" />
        </mxCell>
        <mxCell id="yS0HQnWSNS-6oNHslswb-62" value="" style="verticalLabelPosition=bottom;html=1;verticalAlign=top;strokeWidth=2;shape=mxgraph.lean_mapping.physical_pull;pointerEvents=1;" parent="1" vertex="1">
          <mxGeometry x="518" y="352" width="20" height="20" as="geometry" />
        </mxCell>
        <mxCell id="yS0HQnWSNS-6oNHslswb-63" value="" style="verticalLabelPosition=bottom;html=1;verticalAlign=top;strokeWidth=2;shape=mxgraph.lean_mapping.physical_pull;pointerEvents=1;flipH=1;" parent="1" vertex="1">
          <mxGeometry x="190" y="671" width="20" height="20" as="geometry" />
        </mxCell>
        <mxCell id="yS0HQnWSNS-6oNHslswb-64" value="" style="verticalLabelPosition=bottom;html=1;verticalAlign=top;strokeWidth=2;shape=mxgraph.lean_mapping.physical_pull;pointerEvents=1;flipH=1;" parent="1" vertex="1">
          <mxGeometry x="508" y="750" width="20" height="20" as="geometry" />
        </mxCell>
        <mxCell id="yS0HQnWSNS-6oNHslswb-65" value="" style="verticalLabelPosition=bottom;html=1;verticalAlign=top;strokeWidth=2;shape=mxgraph.lean_mapping.physical_pull;pointerEvents=1;flipH=1;" parent="1" vertex="1">
          <mxGeometry x="269" y="350" width="20" height="20" as="geometry" />
        </mxCell>
        <mxCell id="yS0HQnWSNS-6oNHslswb-66" value="" style="verticalLabelPosition=bottom;html=1;verticalAlign=top;strokeWidth=2;shape=mxgraph.lean_mapping.physical_pull;pointerEvents=1;flipH=1;" parent="1" vertex="1">
          <mxGeometry x="588" y="422" width="20" height="20" as="geometry" />
        </mxCell>
        <mxCell id="tvDcOiG9UbuB7uTkHJmI-1" value="x" style="text;html=1;align=center;verticalAlign=middle;resizable=0;points=[];autosize=1;strokeColor=none;fillColor=none;" vertex="1" parent="1">
          <mxGeometry x="588" y="538" width="30" height="30" as="geometry" />
        </mxCell>
        <mxCell id="tvDcOiG9UbuB7uTkHJmI-2" value="z" style="text;html=1;align=center;verticalAlign=middle;resizable=0;points=[];autosize=1;strokeColor=none;fillColor=none;" vertex="1" parent="1">
          <mxGeometry x="390" y="748" width="30" height="30" as="geometry" />
        </mxCell>
      </root>
    </mxGraphModel>
  </diagram>
</mxfile>
